# AST/ASF file generated using VICON BodyLanguage
# -----------------------------------------------
:version 1.10
:name VICON
:units
  mass 1.0
  length 0.45
  angle deg
:documentation
   .ast/.asf automatically generated from VICON data using
   VICON BodyBuilder and BodyLanguage model FoxedUp or BRILLIANT.MOD
:root
   order TX TY TZ RX RY RZ
   axis XYZ
   position 0 0 0  
   orientation 0 0 0 
:bonedata
  begin
     id 1 
     name lhipjoint
     direction 0.567149 -0.783011 0.255413 
     length 2.28399 
     axis 0 0 0  XYZ
  end
  begin
     id 2 
     name lfemur
     direction 0.34202 -0.939693 0  
     length 7.34031  
     axis 0 0 20  XYZ
    dof rx ry rz
    limits (-160.0 20.0)
           (-70.0 70.0)
           (-60.0 70.0)
  end
  begin
     id 3 
     name ltibia
     direction 0.34202 -0.939693 0   
     length 6.9833   
     axis 0 0 20   XYZ
    dof rx
    limits (-10.0 170.0)
  end
  begin
     id 4 
     name lfoot
     direction 0.136498 -0.375025 0.91691   
     length 2.33665   
     axis -90 7.62852e-016 20   XYZ
    dof rx rz
    limits (-45.0 90.0)
           (-70.0 20.0)
  end
  begin
     id 5 
     name ltoes
     direction 1.5367e-011 -4.21617e-011 1   
     length 1.15039   
     axis -90 7.62852e-016 20   XYZ
    dof rx
    limits (-90.0 20.0)
  end
  begin
     id 6 
     name rhipjoint
     direction -0.602854 -0.758518 0.247423   
     length 2.35775  
     axis 0 0 0  XYZ 
  end
  begin
     id 7 
     name rfemur
     direction -0.34202 -0.939693 0   
     length 7.43932   
     axis 0 0 -20   XYZ
    dof rx ry rz
    limits (-160.0 20.0)
           (-70.0 70.0)
           (-70.0 60.0)
  end
  begin
     id 8 
     name rtibia
     direction -0.34202 -0.939693 0   
     length 7.11893   
     axis 0 0 -20   XYZ
    dof rx
    limits (-10.0 170.0)
 end
 begin
     id 9 
     name rfoot
     direction -0.131771 -0.362037 0.922803   
     length 2.53019  
     axis -90 -7.62852e-016 -20   XYZ
    dof rx rz
    limits (-45.0 90.0)
           (-20.0 70.0)
  end
  begin
     id 10 
     name rtoes
     direction -1.53733e-011 -4.21932e-011 1   
     length 1.24596   
     axis -90 -7.62852e-016 -20   XYZ
    dof rx
    limits (-90.0 20.0)
  end
  begin
     id 11 
     name lowerback
     direction 0.0235427 0.999023 -0.0374125   
     length 2.21768   
     axis 0 0 0   XYZ
    dof rx ry rz
    limits (-20.0 45.0)
           (-30.0 30.0)
           (-30.0 30.0)
  end
  begin
     id 12 
     name upperback
     direction 0.0302156 0.996818 -0.073759   
     length 2.20352   
     axis 0 0 0   XYZ
    dof rx ry rz
    limits (-20.0 45.0)
           (-30.0 30.0)
           (-30.0 30.0)
  end
  begin
     id 13 
     name thorax
     direction 0.0187169 0.998235 -0.0563532   
     length 2.22103   
     axis 0 0 0   XYZ
    dof rx ry rz
    limits (-20.0 45.0)
           (-30.0 30.0)
           (-30.0 30.0)
  end
  begin
     id 14 
     name lowerneck
     direction -0.119528 0.987423 0.103481   
     length 1.72948   
     axis 0 0 0   XYZ
    dof rx ry rz
    limits (-20.0 45.0)
           (-30.0 30.0)
           (-30.0 30.0)
  end
  begin
     id 15 
     name upperneck
     direction 0.248049 0.963095 -0.104496   
     length 1.74979   
     axis 0 0 0   XYZ
    dof rx ry rz
    limits (-20.0 45.0)
           (-30.0 30.0)
           (-30.0 30.0)
  end
  begin
     id 16
     name head
     direction 0.0903589 0.994284 -0.056876  
     length 1.78268  
     axis 0 0 0   XYZ
    dof rx ry rz
    limits (-20.0 45.0)
           (-30.0 30.0)
           (-30.0 30.0)
  end
  begin
     id 17 
     name lclavicle
     direction 0.946008 0.242039 -0.215608  
     length 3.80783  
     axis 0 0 0   XYZ
    dof ry rz
    limits (-20.0 10.0)
           (0.0 20.0)
  end
  begin
     id 18 
     name lhumerus
     direction 1 -4.48991e-011 -2.25695e-027   
     length 4.83125   
     axis 180 -30 -90   XYZ
    dof rx ry rz
    limits (-60.0 90.0)
           (-90.0 90.0)
           (-90.0 90.0)
  end
  begin
     id 19
     name lradius
     direction 0.999991 0.00366712 -0.00211721   
     length 3.00391   
     axis 180 -30 -90   XYZ
    dof rx
    limits (-10.0 170.0)
  end
  begin
     id 20
     name lwrist
     direction 0.999991 0.00393016 -0.00141978   
     length 1.50195   
     axis -1.00488e-014 90 90   XYZ
    dof ry
    limits (-180.0 0.0)
 end
  begin
     id 21 
     name lhand
     direction 1 -4.49123e-011 2.72098e-026   
     length 1.2717   
     axis -1.73687e-014 90 90   XYZ
    dof rx rz
    limits (-90.0 90.0)
           (-45.0 45.0)
  end
  begin
     id 22 
     name lfingers
     direction 1 -4.48678e-011 5.4479e-026   
     length 1.02528   
     axis -3.47372e-014 90 90   XYZ
    dof rx
    limits (0.0 90.0)
  end
  begin
     id 23
     name lthumb
     direction 0.707107 -6.34851e-011 0.707107   
     length 1.4721   
     axis -90 45 -1.62303e-014   XYZ
    dof rx rz
    limits (-45.0 45.0)
           (-45.0 45.0)
  end
  begin
     id 24 
     name rclavicle
     direction -0.981723 0.189447 -0.0181673   
     length 3.74989  
     axis 0 0 0   XYZ 
    dof ry rz
    limits (-10.0 20.0)
           (-20.0 0.0)
  end
  begin
     id 25 
     name rhumerus
     direction -1 -4.48985e-011 2.38206e-027  
     length 4.61118   
     axis 180 30 90   XYZ
    dof rx ry rz
    limits (-90.0 60.0)
           (-90.0 90.0)
           (-90.0 90.0)
  end
  begin
     id 26 
     name rradius
     direction -1 -4.48977e-011 7.41019e-027   
     length 2.91491   
     axis 180 30 90   XYZ
    dof rx
    limits (-10.0 170.0)
  end
  begin
     id 27 
     name rwrist
     direction -1 -4.48549e-011 1.3624e-026   
     length 1.45745   
     axis -1.00488e-014 -90 -90   XYZ
    dof ry
    limits (-180.0 0.0)
  end
  begin
     id 28
     name rhand
     direction -1 -4.49107e-011 2.72109e-026   
     length 1.30769   
     axis -1.73687e-014 -90 -90   XYZ
    dof rx rz
    limits (-90.0 90.0)
           (-45.0 45.0)
  end
  begin
     id 29
     name rfingers
     direction -1 -4.48919e-011 5.44468e-026   
     length 1.05429   
     axis -3.47372e-014 -90 -90   XYZ
    dof rx
    limits (0.0 90.0)
  end
  begin
     id 30
     name rthumb
     direction -0.707107 -6.35315e-011 0.707107   
     length 1.51376   
     axis -90 -45 1.62303e-014   XYZ
    dof rx rz
    limits (-45.0 45.0)
           (-45.0 45.0)
  end
:hierarchy
  begin
    root lhipjoint rhipjoint lowerback
    lhipjoint lfemur
    lfemur ltibia
    ltibia lfoot
    lfoot ltoes
    rhipjoint rfemur
    rfemur rtibia
    rtibia rfoot
    rfoot rtoes
    lowerback upperback
    upperback thorax
    thorax lowerneck lclavicle rclavicle
    lowerneck upperneck
    upperneck head
    lclavicle lhumerus
    lhumerus lradius
    lradius lwrist
    lwrist lhand lthumb
    lhand lfingers
    rclavicle rhumerus
    rhumerus rradius
    rradius rwrist
    rwrist rhand rthumb
    rhand rfingers
  end

#!OML:ASF X:\für Bonn\!DataBase\2005_08_11_Bastian_Final\c3d\Bastian.ASF
:FULLY-SPECIFIED
:DEGREES
16
root -17.6476 17.5254 -1.55373 57.8448 -81.5918 -68.6614
lowerback 10.1484 0.410657 6.02162
upperback 3.48318 1.04504 2.00088
thorax -1.97796 0.469799 -1.42624
lowerneck -6.31012 -5.48555 -7.84909
upperneck -8.63068 -6.73879 9.1796
head -1.04946 -3.3535 4.32665
rclavicle 1.98101e-014 2.90226e-014
rhumerus -27.3271 14.4278 -81.2241
rradius 72.2078
rwrist -3.41993
rhand -14.0721 2.58267
rfingers 7.12502
rthumb 12.0596 -27.0498
lclavicle 1.98101e-014 2.90226e-014
lhumerus -38.6545 11.9176 79.2957
lradius 11.5355
lwrist 5.1687
lhand -9.31609 -6.91987
lfingers 7.12502
lthumb 16.6421 22.3867
rfemur 4.29475 1.30862 30.8375
rtibia 26.3156
rfoot -11.7863 -5.48547
rtoes 0.824421
lfemur -12.9699 -2.06987 -8.35417
ltibia 24.8553
lfoot -6.24726 -5.06658
ltoes -29.0815
17
root -17.7326 17.524 -1.5284 59.4989 -81.6555 -70.2584
lowerback 10.0516 0.457016 6.11138
upperback 3.48196 1.1074 1.97126
thorax -1.91897 0.503134 -1.51287
lowerneck -6.22753 -5.48517 -7.8097
upperneck -8.68142 -6.74442 9.16725
head -1.08202 -3.3593 4.3187
rclavicle 3.70796e-014 1.23246e-014
rhumerus -26.2319 15.0345 -80.603
rradius 73.0716
rwrist -3.36005
rhand -14.1792 2.46036
rfingers 7.12502
rthumb 11.9563 -27.1782
lclavicle 3.70796e-014 1.23246e-014
lhumerus -38.4626 11.4401 79.6755
lradius 11.5885
lwrist 5.50191
lhand -9.20799 -6.81078
lfingers 7.12502
lthumb 16.7462 22.487
rfemur 4.64847 1.37045 30.8147
rtibia 26.1196
rfoot -11.9375 -5.35456
rtoes 0.48144
lfemur -12.9327 -2.29565 -8.36443
ltibia 24.6036
lfoot -6.48102 -5.13277
ltoes -28.8737
18
root -17.8185 17.5222 -1.5025 61.3053 -81.7018 -72.0173
lowerback 9.95011 0.507513 6.23342
upperback 3.47336 1.17826 1.92987
thorax -1.86304 0.540892 -1.63042
lowerneck -6.11244 -5.48802 -7.76516
upperneck -8.73032 -6.75564 9.1693
head -1.11876 -3.36865 4.31583
rclavicle 9.19379e-015 -5.36719e-015
rhumerus -25.0366 15.6323 -79.9212
rradius 73.8702
rwrist -3.22963
rhand -14.3295 2.34476
rfingers 7.12502
rthumb 11.8113 -27.3022
lclavicle 9.19379e-015 -5.36719e-015
lhumerus -38.2672 10.8258 80.1015
lradius 11.65
lwrist 5.85848
lhand -9.12895 -6.64939
lfingers 7.12502
lthumb 16.8223 22.6419
rfemur 5.02522 1.43795 30.8106
rtibia 25.9023
rfoot -12.0996 -5.23499
rtoes -0.0292667
lfemur -12.8627 -2.4605 -8.362
ltibia 24.4736
lfoot -6.64047 -5.27099
ltoes -28.7075
19
root -17.9033 17.5202 -1.47649 63.0818 -81.727 -73.71
lowerback 9.81526 0.555119 6.35194
upperback 3.45548 1.2431 1.89245
thorax -1.79868 0.576004 -1.74054
lowerneck -5.9906 -5.49876 -7.7198
upperneck -8.80503 -6.7771 9.17867
head -1.16406 -3.38377 4.31612
rclavicle 6.02566e-016 -1.15295e-014
rhumerus -23.6716 16.177 -79.1655
rradius 74.5875
rwrist -3.05983
rhand -14.4151 2.17002
rfingers 7.12502
rthumb 11.7288 -27.4816
lclavicle 6.02566e-016 -1.15295e-014
lhumerus -38.0576 10.0497 80.6035
lradius 11.7706
lwrist 6.29282
lhand -9.01718 -6.51906
lfingers 7.12502
lthumb 16.9299 22.7631
rfemur 5.3412 1.49223 30.8089
rtibia 25.7152
rfoot -12.2486 -5.09462
rtoes -0.464592
lfemur -12.8174 -2.60012 -8.3497
ltibia 24.3974
lfoot -6.62829 -5.44937
ltoes -28.2984
20
root -17.9884 17.5158 -1.44865 64.7584 -81.7467 -75.3619
lowerback 9.72558 0.596991 6.47643
upperback 3.45697 1.30225 1.85225
thorax -1.73873 0.608176 -1.85653
lowerneck -5.90239 -5.50999 -7.70918
upperneck -8.83686 -6.79537 9.21917
head -1.18717 -3.39567 4.33198
rclavicle 3.41661e-014 1.27222e-014
rhumerus -22.2077 16.7303 -78.3247
rradius 75.2169
rwrist -2.91672
rhand -14.4864 1.98221
rfingers 7.12502
rthumb 11.6601 -27.6733
lclavicle 3.41661e-014 1.27222e-014
lhumerus -37.814 9.42665 81.0125
lradius 11.8321
lwrist 6.5277
lhand -8.92014 -6.4713
lfingers 7.12502
lthumb 17.0233 22.8028
rfemur 5.70674 1.50455 30.7844
rtibia 25.5615
rfoot -12.4279 -4.94178
rtoes -0.915713
lfemur -12.6779 -2.71709 -8.35953
ltibia 24.3437
lfoot -6.44026 -5.65164
ltoes -27.3997
21
root -18.0725 17.5113 -1.42078 66.4282 -81.7574 -76.9682
lowerback 9.59341 0.639266 6.58024
upperback 3.4485 1.35756 1.81978
thorax -1.66656 0.638852 -1.95169
lowerneck -5.81026 -5.51722 -7.70239
upperneck -8.88316 -6.80778 9.26599
head -1.21596 -3.40494 4.35167
rclavicle 2.04997e-016 -4.57205e-015
rhumerus -20.6437 17.2874 -77.4044
rradius 75.6884
rwrist -2.75239
rhand -14.6161 1.87788
rfingers 7.12502
rthumb 11.535 -27.7847
lclavicle 2.04997e-016 -4.57205e-015
lhumerus -37.5829 8.49642 81.6074
lradius 12.0077
lwrist 7.07554
lhand -8.84241 -6.33613
lfingers 7.12502
lthumb 17.0981 22.9315
rfemur 6.00527 1.54893 30.7668
rtibia 25.4539
rfoot -12.6373 -4.82476
rtoes -1.4073
lfemur -12.5534 -2.80782 -8.37276
ltibia 24.2996
lfoot -6.05433 -5.83308
ltoes -26.5784
22
root -18.1571 17.5081 -1.39297 68.1866 -81.7666 -78.6651
lowerback 9.46555 0.67862 6.63225
upperback 3.42686 1.40587 1.79805
thorax -1.61269 0.665196 -2.0061
lowerneck -5.73943 -5.51162 -7.61369
upperneck -8.88096 -6.8086 9.2532
head -1.23106 -3.40902 4.33238
rclavicle 2.75814e-015 1.35174e-014
rhumerus -18.9828 17.8096 -76.4445
rradius 76.1468
rwrist -2.6223
rhand -14.6728 1.74844
rfingers 7.12502
rthumb 11.4803 -27.9172
lclavicle 2.75814e-015 1.35174e-014
lhumerus -37.3606 7.51457 82.2139
lradius 12.1882
lwrist 7.71507
lhand -8.78812 -6.23769
lfingers 7.12502
lthumb 17.1504 23.0254
rfemur 6.28477 1.6086 30.7412
rtibia 25.3887
rfoot -12.8609 -4.69038
rtoes -1.71339
lfemur -12.3908 -2.87737 -8.38538
ltibia 24.2599
lfoot -5.40463 -5.97437
ltoes -25.4557
23
root -18.2409 17.5041 -1.36386 69.7824 -81.759 -80.2155
lowerback 9.34768 0.701392 6.66124
upperback 3.42236 1.42938 1.79227
thorax -1.54947 0.679231 -2.02844
lowerneck -5.72972 -5.49709 -7.49642
upperneck -8.86786 -6.79743 9.20417
head -1.23525 -3.4065 4.29252
rclavicle -4.94477e-015 -1.59028e-014
rhumerus -17.2084 18.2603 -75.4427
rradius 76.5795
rwrist -2.44531
rhand -14.66 1.59802
rfingers 7.12502
rthumb 11.4927 -28.0669
lclavicle -4.94477e-015 -1.59028e-014
lhumerus -37.1176 6.5579 82.8162
lradius 12.3886
lwrist 8.29833
lhand -8.78247 -6.17094
lfingers 7.12502
lthumb 17.1558 23.0917
rfemur 6.56298 1.6566 30.7204
rtibia 25.3571
rfoot -13.1114 -4.58569
rtoes -2.07515
lfemur -12.2015 -2.92071 -8.40257
ltibia 24.236
lfoot -4.51356 -6.09175
ltoes -23.9298
